HIERARCHY
ROOT Hips
{
	OFFSET -3.958830 18.904000 13.208200
	CHANNELS 6 Xposition Yposition Zposition Zrotation Yrotation Xrotation 
	JOINT LHipJoint
	{
		OFFSET 0.000000 0.000000 0.000000
		CHANNELS 3 Zrotation Yrotation Xrotation
		JOINT LeftUpLeg
		{
			OFFSET 1.800000 -1.400000 0.085000
			CHANNELS 3 Zrotation Yrotation Xrotation
			JOINT LeftLeg
			{
				OFFSET 2.215000 -6.000000 0.000000
				CHANNELS 3 Zrotation Yrotation Xrotation
				JOINT LeftFoot
				{
					OFFSET 2.500000 -6.900000 0.000000
					CHANNELS 3 Zrotation Yrotation Xrotation
					JOINT LeftToeBase
					{
						OFFSET 0.200000 -0.500000 1.950000
						CHANNELS 3 Zrotation Yrotation Xrotation
						End Site
						{
							OFFSET 0.000000 0.000000 0.000000
						}
					}
				}
			}
		}
	}
	JOINT RHipJoint
	{
		OFFSET 0.000000 0.000000 0.000000
		CHANNELS 3 Zrotation Yrotation Xrotation
		JOINT RightUpLeg
		{
			OFFSET -1.800000 -1.400000 0.085000
			CHANNELS 3 Zrotation Yrotation Xrotation
			JOINT RightLeg
			{
				OFFSET -2.215000 -6.000000 0.000000
				CHANNELS 3 Zrotation Yrotation Xrotation
				JOINT RightFoot
				{
					OFFSET -2.500000 -6.900000 0.000000
					CHANNELS 3 Zrotation Yrotation Xrotation
					JOINT RightToeBase
					{
						OFFSET -0.200000 -0.500000 1.950000
						CHANNELS 3 Zrotation Yrotation Xrotation
						End Site
						{
							OFFSET 0.000000 0.000000 0.000000
						}
					}
				}
			}
		}
	}
	JOINT LowerBack
	{
		OFFSET 0.000000 0.000000 0.000000
		CHANNELS 3 Zrotation Yrotation Xrotation
		JOINT Spine
		{
			OFFSET -0.087000 1.940000 -0.288900
			CHANNELS 3 Zrotation Yrotation Xrotation
			JOINT Spine1
			{
				OFFSET 0.000000 1.950000 0.060000
				CHANNELS 3 Zrotation Yrotation Xrotation
				JOINT Neck
				{
					OFFSET 0.000000 0.000000 0.000000
					CHANNELS 3 Zrotation Yrotation Xrotation
					JOINT Neck1
					{
						OFFSET 0.000000 1.600000 0.340000
						CHANNELS 3 Zrotation Yrotation Xrotation
						JOINT Head
						{
							OFFSET 0.000000 1.667000 -0.240000
							CHANNELS 3 Zrotation Yrotation Xrotation
							End Site
							{
								OFFSET 0.000000 0.000000 0.000000
							}
						}
					}
				}
				JOINT LeftShoulder
				{
					OFFSET 0.000000 0.000000 0.000000
					CHANNELS 3 Zrotation Yrotation Xrotation
					JOINT LeftArm
					{
						OFFSET 2.700000 1.550000 -0.730000
						CHANNELS 3 Zrotation Yrotation Xrotation
						JOINT LeftForeArm
						{
							OFFSET 5.450000 0.000000 0.000000
							CHANNELS 3 Zrotation Yrotation Xrotation
							JOINT LeftHand
							{
								OFFSET 3.450000 0.000000 0.000000
								CHANNELS 3 Zrotation Yrotation Xrotation
								JOINT LeftHandIndex1
								{
									OFFSET 0.750000 0.000000 0.000000
									CHANNELS 3 Zrotation Yrotation Xrotation
									End Site
									{
										OFFSET 0.000000 0.000000 0.000000
									}
								}
							}
						}
					}
				}
				JOINT RightShoulder
				{
					OFFSET 0.000000 0.000000 0.000000
					CHANNELS 3 Zrotation Yrotation Xrotation
					JOINT RightArm
					{
						OFFSET -2.700000 1.550000 -0.730000
						CHANNELS 3 Zrotation Yrotation Xrotation
						JOINT RightForeArm
						{
							OFFSET -5.450000 0.000000 0.000000
							CHANNELS 3 Zrotation Yrotation Xrotation
							JOINT RightHand
							{
								OFFSET -3.450000 0.000000 0.000000
								CHANNELS 3 Zrotation Yrotation Xrotation
								JOINT RightHandIndex1
								{
									OFFSET -0.750000 0.000000 0.000000
									CHANNELS 3 Zrotation Yrotation Xrotation
									End Site
									{
										OFFSET 0.000000 0.000000 0.000000
									}
								}
							}
						}
					}
				}
			}
		}
	}
}
MOTION
Frames: 7
Frame Time: 0.016667
1.238660 17.358190 -4.937140 -3.293294 -8.456028 -6.693405 -15.266658 14.831125 3.553145 3.851697 -0.606011 -6.741055 -5.662534 4.516700 5.184503 0.397805 3.041527 3.288970 0.783260 0.677810 1.015670 17.922944 -10.133317 3.193048 3.388032 1.099743 -9.926665 2.682747 -3.209269 10.374527 -0.506003 -2.085480 3.302036 0.012760 -0.711560 0.234640 -2.744517 -5.351604 -8.282686 19.855815 -6.847104 30.551423 -11.116549 2.014358 -24.407439 7.041010 -5.160732 -18.762435 -22.778032 12.787797 71.633899 -6.623430 4.172610 -2.640370 -1.374439 0.979068 3.105887 -15.879830 6.187351 -1.669642 131.444882 -4.809011 -1.660057 -2.859964 3.603369 0.536020 -0.583560 0.800860 -0.035010 -9.395061 10.443967 13.556969 32.302576 -8.832033 -7.401417 -127.964556 15.105826 -31.819228 2.995387 -2.341628 0.443020 -0.324990 -0.633800 0.027330 
1.214420 17.289460 -4.884060 -3.136721 -8.312364 -5.302934 -15.230939 14.676598 3.594574 4.028626 -0.652504 -7.319188 -6.818222 4.515590 4.551550 0.378320 3.006948 3.311926 0.921850 0.892140 1.096390 17.947023 -10.171385 3.281569 3.120843 1.305202 -10.533939 3.306916 -2.982386 8.073270 -0.577045 -1.982679 3.335886 0.149790 -0.718140 0.238070 -2.823198 -4.979029 -8.392274 19.496780 -6.157212 26.696397 -10.770594 2.443228 -24.383109 6.015107 -4.292719 -18.890867 -20.246181 12.313714 76.803150 -4.683390 4.075290 -3.769160 -2.002899 -2.907993 3.132767 -16.266309 1.847944 -3.250557 136.915536 4.124388 18.569838 -2.870471 3.812538 0.542000 -0.573510 0.891430 0.057020 -7.172687 13.413060 13.372664 32.238779 -4.602909 -7.834463 -126.337778 5.511437 -13.512157 3.072380 -2.453280 0.454970 -0.252630 -0.744650 0.051630 
1.205770 17.240720 -4.871610 -2.787848 -8.082610 -5.744629 -15.217401 14.615473 3.596052 3.943095 -0.523254 -6.636296 -6.867953 4.528315 4.221787 0.378606 3.108664 3.322277 0.889020 0.899250 1.035960 17.955181 -10.227578 3.302814 2.369633 1.164873 -9.879014 3.708051 -2.974782 6.737477 -0.566452 -2.103138 3.333017 0.177220 -0.585640 0.245640 -2.855988 -4.773587 -8.417018 18.393976 -6.167211 25.985173 -9.699688 2.089844 -24.241969 4.987782 -4.364468 -19.053330 -20.220653 12.455702 77.842271 -3.270990 3.916880 -1.126790 -3.033149 -6.395351 2.866289 -15.242801 -2.631608 -4.516937 144.113823 8.835623 34.152892 -3.002002 3.985761 0.469140 -0.468810 0.838530 0.094630 -4.271811 16.364792 13.760049 30.206980 -2.496385 -7.902042 -126.796713 0.706964 -5.712321 3.057997 -2.484716 0.427780 -0.181580 -0.717240 0.091660 
1.208690 17.235670 -4.909490 -2.339250 -8.481301 -8.187216 -15.206175 14.591526 3.558596 4.124886 -0.347482 -4.786590 -7.019991 4.817153 5.188794 0.450829 3.261078 3.246097 0.899570 0.927280 1.036210 17.959383 -10.357947 3.246886 1.066751 0.675648 -8.021959 4.324301 -3.304032 6.996444 -0.618425 -2.337967 3.248449 0.171820 -0.596990 0.268190 -2.868192 -4.534025 -8.323752 16.553587 -6.742215 29.486296 -8.723432 1.239529 -24.072033 4.453122 -5.080498 -19.717982 -21.054929 13.404983 77.825609 -1.202890 4.519140 -1.215950 -3.149079 -7.408539 2.306646 -17.286608 -2.861375 -6.492448 148.518986 8.674258 36.279621 -2.973437 4.172487 0.452070 -0.466710 0.848200 0.077340 -3.337269 18.232088 15.412147 30.404122 -1.702817 -7.350392 -127.251600 4.149816 -15.729912 2.972821 -2.398882 0.467560 -0.219540 -0.711890 0.096740 
1.264420 17.232980 -5.172260 -2.621779 -10.455185 -23.180978 -14.893895 13.692205 3.396364 7.115268 0.837125 9.236685 -7.307384 6.221563 6.739776 0.836375 4.431213 2.852566 0.956820 0.986160 1.106540 18.361338 -11.015202 3.240998 -1.961264 -2.156159 4.647966 4.541590 -5.098554 8.558720 -1.062340 -3.839997 2.712104 0.146300 -0.766510 0.306560 -3.893720 -2.112960 -8.042048 16.732888 -9.764883 45.644951 -11.306110 -1.418034 -1.558899 3.316783 -5.514634 -19.774207 -17.996956 9.650263 67.230765 -0.300160 4.202230 -15.703800 -4.844329 -16.182959 5.209901 -11.996359 -1.063339 -11.974586 152.363102 9.877129 16.791325 -2.748534 4.232407 0.548470 -0.616510 0.960100 0.029730 -1.287031 24.194182 16.409118 28.371600 -0.253138 -15.692873 -126.308872 6.209139 -37.032818 2.949113 -2.212383 0.542390 -0.300310 -0.749780 0.069650 
1.276110 17.260030 -5.271240 -2.750807 -8.901983 -26.435493 -14.788068 13.262594 3.100652 7.189693 1.018213 10.665129 -6.517136 6.605186 9.074445 0.942084 4.694572 2.927834 0.647330 0.629940 0.831960 18.537417 -11.364709 3.153969 -3.595375 -2.729264 6.468149 5.398050 -5.775670 9.622202 -0.944219 -4.447068 2.633336 -0.030700 -0.493580 0.312580 -4.341418 -0.941577 -7.701126 16.891479 -8.896428 44.828458 -10.466045 -1.521575 21.219849 3.167470 -4.377157 -15.777790 -11.427382 2.260839 43.818735 -1.493530 1.696610 -17.000950 1.358107 -18.450400 9.441501 -14.099919 -5.712940 -10.159381 149.894006 6.950445 -18.251375 -3.054560 3.808431 0.338520 -0.422160 0.675860 0.025580 -6.616851 21.786081 13.710097 30.049887 0.960000 -21.868713 -122.284915 11.697929 -52.582281 2.962761 -2.256988 0.454030 -0.319120 -0.608800 0.128560 
1.297960 17.302300 -5.358060 -2.596143 -8.258844 -25.878164 -14.856165 13.566823 2.891391 5.577448 0.933253 6.851120 -3.988585 6.320204 13.059081 0.788867 4.447087 3.038378 0.482230 0.416350 0.720020 18.454363 -11.457350 2.935781 -4.491237 -1.983804 2.858880 6.116093 -6.127802 13.434891 -0.725191 -4.368196 2.689795 -0.113160 -0.404440 0.292720 -4.130987 -1.274848 -7.405973 15.822762 -7.678697 45.076155 -9.668657 -1.579404 26.204936 3.621565 -3.758052 -14.208490 -9.080484 -0.498708 35.497986 -3.908650 1.648540 -18.064500 4.641618 -14.821935 9.917079 -17.630670 -9.216599 -8.339377 143.174886 -2.108355 -45.973689 -3.241047 3.470931 0.277590 -0.340210 0.522060 -0.027620 -10.921183 16.593553 11.842717 34.366192 1.210818 -21.901404 -118.381419 24.005006 -66.094158 2.912315 -2.186771 0.372160 -0.342440 -0.509450 0.099560 
